<svg width="28" height="27" viewBox="0 0 28 27" fill="none" xmlns="http://www.w3.org/2000/svg">
<g clip-path="url(#clip0)" filter="url(#filter0_d)">
<path d="M18.1666 17.5V15.8333C18.1666 14.9493 17.8154 14.1014 17.1903 13.4763C16.5652 12.8512 15.7173 12.5 14.8333 12.5H8.16659C7.28253 12.5 6.43468 12.8512 5.80956 13.4763C5.18444 14.1014 4.83325 14.9493 4.83325 15.8333V17.5" stroke="#FAFAFA" stroke-width="2" stroke-linecap="round" stroke-linejoin="round"/>
<path d="M11.5001 9.16667C13.341 9.16667 14.8334 7.67428 14.8334 5.83333C14.8334 3.99238 13.341 2.5 11.5001 2.5C9.65913 2.5 8.16675 3.99238 8.16675 5.83333C8.16675 7.67428 9.65913 9.16667 11.5001 9.16667Z" stroke="#FAFAFA" stroke-width="2" stroke-linecap="round" stroke-linejoin="round"/>
<path d="M23.1667 17.5V15.8333C23.1662 15.0948 22.9204 14.3773 22.4679 13.7936C22.0154 13.2099 21.3819 12.793 20.6667 12.6083" stroke="#FAFAFA" stroke-width="2" stroke-linecap="round" stroke-linejoin="round"/>
<path d="M17.3333 2.60834C18.0503 2.79192 18.6858 3.20892 19.1396 3.7936C19.5935 4.37827 19.8398 5.09736 19.8398 5.8375C19.8398 6.57765 19.5935 7.29674 19.1396 7.88141C18.6858 8.46609 18.0503 8.88309 17.3333 9.06667" stroke="#FAFAFA" stroke-width="2" stroke-linecap="round" stroke-linejoin="round"/>
</g>
<defs>
<filter id="filter0_d" x="0" y="0" width="28" height="28" filterUnits="userSpaceOnUse" color-interpolation-filters="sRGB">
<feFlood flood-opacity="0" result="BackgroundImageFix"/>
<feColorMatrix in="SourceAlpha" type="matrix" values="0 0 0 0 0 0 0 0 0 0 0 0 0 0 0 0 0 0 127 0"/>
<feOffset dy="4"/>
<feGaussianBlur stdDeviation="2"/>
<feColorMatrix type="matrix" values="0 0 0 0 0 0 0 0 0 0 0 0 0 0 0 0 0 0 0.25 0"/>
<feBlend mode="normal" in2="BackgroundImageFix" result="effect1_dropShadow"/>
<feBlend mode="normal" in="SourceGraphic" in2="effect1_dropShadow" result="shape"/>
</filter>
<clipPath id="clip0">
<rect width="20" height="20" fill="white" transform="translate(4)"/>
</clipPath>
</defs>
</svg>
